<?xml version="1.0" encoding="iso-8859-1"?>
<!-- Uploaded to: SVG Repo, www.svgrepo.com, Generator: SVG Repo Mixer Tools -->
<svg height="800px" width="800px" version="1.1" id="Layer_1" xmlns="http://www.w3.org/2000/svg" xmlns:xlink="http://www.w3.org/1999/xlink" 
	 viewBox="0 0 512 512" xml:space="preserve">
<path style="fill:#FFFFA6;" d="M308.323,166.444c13.017,80.709-41.857,156.689-122.566,169.707
	c-80.708,13.018-156.689-41.857-169.706-122.566S57.908,56.896,138.616,43.878S295.306,85.735,308.323,166.444z"/>
<path style="fill:#FFE954;" d="M250.094,175.836c7.83,48.55-25.179,94.256-73.729,102.086c-48.55,7.83-94.256-25.179-102.086-73.729
	s25.179-94.256,73.729-102.086C196.558,94.276,242.264,127.286,250.094,175.836z M134.45,70.47c0.661,4.102,4.206,7.02,8.231,7.02
	c0.442,0,0.889-0.035,1.34-0.108c4.551-0.735,7.647-5.019,6.912-9.571l-5.317-32.965c-0.735-4.551-5.024-7.65-9.571-6.912
	c-4.551,0.735-7.647,5.019-6.912,9.571L134.45,70.47z M39.985,201.269L7.02,206.586c-4.551,0.735-7.647,5.019-6.912,9.571
	c0.661,4.102,4.206,7.02,8.231,7.02c0.442,0,0.889-0.035,1.34-0.108l32.965-5.317c4.551-0.735,7.647-5.019,6.912-9.571
	C48.821,203.628,44.535,200.531,39.985,201.269z M67.819,111.562L40.75,92.012c-3.738-2.7-8.957-1.858-11.655,1.88
	c-2.699,3.738-1.858,8.956,1.88,11.655l27.069,19.549c1.478,1.067,3.187,1.581,4.881,1.581c2.59,0,5.142-1.201,6.774-3.46
	C72.399,119.48,71.556,114.262,67.819,111.562z M258.31,56.923c-3.738-2.7-8.956-1.858-11.655,1.88l-19.551,27.069
	c-2.699,3.738-1.858,8.956,1.88,11.655c1.478,1.067,3.187,1.581,4.881,1.581c2.59,0,5.142-1.201,6.774-3.46l19.551-27.069
	C262.889,64.84,262.047,59.622,258.31,56.923z"/>
<path style="fill:#A7E5CB;" d="M345.043,484.174L345.043,484.174H122.435C54.816,484.174,0,429.358,0,361.739
	s54.816-122.435,122.435-122.435c15.271,0,29.885,2.804,43.366,7.912C190.11,177.795,256.191,128,333.913,128
	C432.268,128,512,207.732,512,306.087C512,400.703,438.212,478.426,345.043,484.174z"/>
<path style="fill:#93D6BB;" d="M512,306.087c0,94.615-73.788,172.339-166.957,178.087l0,0H122.435
	c-53.654,0-99.241-34.516-115.785-82.551c17.763,10.035,38.278,15.768,60.133,15.768h222.609v-0.356
	c93.168-5.748,166.957-83.115,166.957-177.731c0-27.627-6.292-53.784-17.519-77.118C483.179,194.577,512,246.962,512,306.087z"/>
</svg>